<svg width="89" height="23" viewBox="0 0 89 23" fill="none" xmlns="http://www.w3.org/2000/svg">
<path d="M77.5433 2.66769C78.9238 1.38277 80.5198 0.871732 82.2909 0.916717C84.6331 0.97618 86.6324 1.76247 87.9629 3.80835C88.694 4.93281 88.9823 6.19636 88.9906 7.51852C89.0079 10.1602 88.9961 12.802 88.9953 15.4438C88.9953 16.0609 88.7498 16.3056 88.1378 16.3082C87.8765 16.3082 87.615 16.3101 87.3538 16.3082C86.8227 16.3039 86.5694 16.0599 86.5669 15.5261C86.5614 14.354 86.5652 13.1805 86.5652 12.0077C86.5652 10.5387 86.5733 9.06973 86.5623 7.60073C86.5557 6.72705 86.4006 5.8813 85.9344 5.12223C85.3161 4.11532 84.3699 3.60377 83.2367 3.4009C81.9188 3.16512 80.6501 3.28766 79.5224 4.06568C78.239 4.95108 77.6145 6.2186 77.5982 7.75413C77.5711 10.289 77.5911 12.8244 77.5907 15.3596C77.5907 16.0897 77.3696 16.3075 76.6324 16.3075C76.3711 16.3075 76.1095 16.3146 75.8486 16.3056C75.7594 16.3081 75.6707 16.2927 75.5877 16.2603C75.5046 16.228 75.4288 16.1794 75.3648 16.1173C75.3008 16.0553 75.2498 15.981 75.2149 15.899C75.18 15.817 75.1619 15.7288 75.1615 15.6396C75.1571 15.5688 75.1605 15.4976 75.1605 15.4264C75.1605 10.9722 75.1605 6.51787 75.1605 2.06358C75.1605 1.38518 75.3761 1.16732 76.0478 1.16732C76.3212 1.16732 76.5947 1.15853 76.8674 1.17025C76.9567 1.16894 77.0453 1.18563 77.128 1.21933C77.2107 1.25303 77.2857 1.30305 77.3487 1.3664C77.4116 1.42975 77.4611 1.50514 77.4943 1.58806C77.5274 1.67097 77.5435 1.75972 77.5416 1.849C77.5518 2.09443 77.5435 2.34056 77.5435 2.66735" fill="white"/>
<path d="M33.9633 12.7164C34.5308 11.3335 35.056 10.0207 35.6069 8.71767C36.5952 6.38068 37.6036 4.0523 38.5918 1.71531C38.6465 1.53894 38.7612 1.38727 38.916 1.28655C39.0708 1.18582 39.256 1.14239 39.4394 1.16377C39.7238 1.17773 40.0094 1.16377 40.2943 1.16687C40.9582 1.17256 41.2669 1.62896 41.0054 2.23876C40.1591 4.21294 39.3091 6.18551 38.4556 8.15647C36.5252 12.6331 34.5962 17.1103 32.6685 21.5883C32.4789 22.0321 32.2016 22.2444 31.7169 22.2022C31.4813 22.1817 31.2421 22.1991 31.0046 22.1984C30.2791 22.1969 29.9856 21.7453 30.2757 21.0686C31.0151 19.345 31.753 17.6191 32.5036 15.8996C32.5459 15.8123 32.568 15.7165 32.5684 15.6194C32.5687 15.5223 32.5472 15.4264 32.5055 15.3388C30.731 10.9897 28.9615 6.6387 27.1969 2.28564C26.9197 1.60328 27.2114 1.16877 27.942 1.1667C28.2151 1.16578 28.4882 1.16578 28.7614 1.1667C29.2309 1.16894 29.426 1.30028 29.5963 1.73169C30.6275 4.34416 31.6589 6.95675 32.6902 9.56946C33.098 10.5988 33.5205 11.6222 33.9636 12.7153" fill="white"/>
<path d="M48.7887 12.7438C49.1198 11.9157 49.4003 11.1802 49.7064 10.4554C50.9473 7.51871 52.1922 4.58375 53.441 1.65058C53.4948 1.49829 53.5976 1.36814 53.7332 1.28053C53.8689 1.19291 54.0298 1.15279 54.1908 1.16643C54.4995 1.17263 54.8085 1.16539 55.1174 1.16832C55.7797 1.17436 56.0867 1.63179 55.8257 2.24142C55.0728 3.99946 54.3161 5.75647 53.5558 7.51245C51.5365 12.1964 49.5165 16.8804 47.4961 21.5644C47.2637 22.1037 47.1193 22.1997 46.5266 22.1999C46.2772 22.1999 46.0276 22.2011 45.7782 22.1999C45.1187 22.1959 44.8161 21.7417 45.0765 21.1292C45.682 19.7055 46.2756 18.7551 46.8823 17.3318C47.0621 16.9102 47.4116 16.0284 47.3906 15.591C47.3704 15.1679 47.0893 14.7566 46.92 14.3411C45.2916 10.3386 43.6628 6.3364 42.0337 2.33449C41.7264 1.57905 42.0063 1.16867 42.8195 1.16798C43.081 1.16798 43.3424 1.16643 43.6035 1.16798C44.0551 1.17108 44.2357 1.29121 44.4059 1.7209C45.232 3.80654 46.057 5.89258 46.8807 7.97902C47.4993 9.53661 48.1265 11.0909 48.7891 12.7437" fill="white"/>
<path d="M2.37162 2.61243C2.7524 2.24068 3.18933 1.93119 3.66636 1.69531C5.64727 0.788886 7.62472 0.749072 9.58942 1.74702C10.1089 2.01073 10.2153 2.37061 9.93913 2.88613C9.81659 3.11502 9.69508 3.34529 9.55995 3.56711C9.33158 3.94371 8.96532 4.06074 8.58475 3.85305C7.99986 3.54143 7.34921 3.37346 6.68657 3.363C6.02392 3.35254 5.3683 3.4999 4.77387 3.79291C4.17943 4.08592 3.66325 4.51616 3.26796 5.04809C2.87266 5.58003 2.60962 6.19838 2.50054 6.85207C2.459 7.12106 2.44055 7.39311 2.44539 7.66525C2.44159 10.247 2.44079 12.8289 2.44297 15.4108C2.44297 16.0794 2.21391 16.3093 1.55068 16.31C1.2656 16.31 0.98035 16.3172 0.695616 16.3081C0.533797 16.3111 0.376551 16.2543 0.25392 16.1487C0.131288 16.0431 0.0518688 15.896 0.0308338 15.7355C0.00904428 15.6073 -0.000764941 15.4774 0.00153307 15.3474C3.93096e-05 10.942 -0.000362857 6.53648 0.000326572 2.13069C0.000326572 1.37145 0.208707 1.16807 0.980695 1.16773C1.14702 1.16773 1.31317 1.16773 1.4795 1.16773C2.0986 1.16945 2.34266 1.39834 2.37041 2.01073C2.37817 2.18308 2.37162 2.35716 2.37162 2.61225" fill="white"/>
<path d="M72.3681 1.88661C72.3697 1.78841 72.3509 1.69095 72.3128 1.60041C72.2747 1.50988 72.2182 1.42826 72.1469 1.36073C72.0756 1.29321 71.991 1.24125 71.8985 1.20817C71.806 1.17509 71.7077 1.1616 71.6097 1.16857C71.3129 1.16323 71.0158 1.16478 70.719 1.16857C70.2047 1.17443 69.9372 1.44004 69.9282 1.96142C69.9218 2.32681 69.927 2.69238 69.927 3.1381C69.2031 2.4142 68.335 1.8507 67.3791 1.48421C66.4231 1.11773 65.4008 0.956451 64.3785 1.01087C62.1715 1.08171 60.2733 1.87869 58.8305 3.55744C56.9161 5.78516 56.5197 8.38017 57.2965 11.146C58.7455 16.3036 65.3221 18.288 69.3908 14.8258C69.5564 14.6848 69.7167 14.5375 69.9265 14.3515V14.9785C69.9265 15.1798 69.9184 15.3817 69.9286 15.5818C69.9241 15.6801 69.9405 15.7782 69.9767 15.8697C70.013 15.9612 70.0682 16.0439 70.1388 16.1125C70.2094 16.181 70.2937 16.2338 70.3862 16.2673C70.4787 16.3009 70.5773 16.3144 70.6754 16.3071C70.9248 16.3117 71.1742 16.3079 71.4236 16.3071C72.1551 16.3071 72.3691 16.0911 72.3691 15.3508C72.3691 10.9453 72.3691 6.53963 72.3691 2.13395C72.3691 2.05104 72.3736 1.96797 72.3679 1.88523M64.6699 14.1516C61.4824 14.1355 59.3831 11.8215 59.3712 8.72454C59.3591 5.61436 61.6141 3.3563 64.6865 3.36251C67.8463 3.36906 70.0556 5.60057 70.052 8.78194C70.0484 11.9188 67.8286 14.1674 64.6699 14.1516Z" fill="white"/>
<path d="M25.8935 1.87073C25.8944 1.77549 25.8757 1.68107 25.8387 1.59332C25.8016 1.50557 25.747 1.42634 25.6781 1.36052C25.6093 1.2947 25.5277 1.2437 25.4383 1.21065C25.349 1.1776 25.2538 1.16322 25.1587 1.16838C24.9097 1.16183 24.6601 1.16717 24.4107 1.16717C23.668 1.16717 23.4536 1.37934 23.452 2.11514C23.452 2.43417 23.452 2.75286 23.452 3.13808C20.503 0.181632 15.4164 0.365193 12.6309 3.25183C10.7683 5.18223 10.1854 7.53146 10.5958 10.1272C11.4403 15.4659 16.9083 17.7209 21.1354 15.9468C22.0053 15.5649 22.7924 15.0169 23.4524 14.3335C23.4524 14.807 23.439 15.1862 23.4558 15.564C23.4776 16.0499 23.7466 16.301 24.2213 16.3075C24.4707 16.311 24.7201 16.3075 24.9695 16.3075C25.6782 16.3075 25.8945 16.0881 25.8945 15.3699C25.8945 10.953 25.8945 6.53604 25.8945 2.1191C25.8945 2.0362 25.8988 1.95312 25.8935 1.87039M19.5911 13.9961C17.0905 14.5754 14.7068 13.5936 13.5689 11.4762C12.249 9.01994 12.8657 5.54229 15.4573 4.06363C18.4311 2.36678 23.4917 3.59138 23.577 8.76899C23.577 11.3888 22.0168 13.4344 19.5911 13.9962" fill="white"/>
</svg>
